<?xml version="1.0" standalone="no"?>
<!DOCTYPE svg PUBLIC "-//W3C//DTD SVG 20010904//EN"
 "http://www.w3.org/TR/2001/REC-SVG-20010904/DTD/svg10.dtd">
<svg version="1.0" xmlns="http://www.w3.org/2000/svg"
 width="504.000000pt" height="504.000000pt" viewBox="0 0 504.000000 504.000000"
 preserveAspectRatio="xMidYMid meet">
<metadata>
Created by potrace 1.11, written by Peter Selinger 2001-2013
</metadata>
<g transform="translate(0.000000,504.000000) scale(0.100000,-0.100000)"
fill="#000000" stroke="none">
<path d="M2427 5034 c-1 -1 -56 -5 -122 -9 -66 -3 -131 -8 -145 -9 -14 -2 -61
-7 -104 -11 -43 -4 -86 -8 -95 -10 -9 -1 -38 -6 -66 -9 -27 -4 -61 -8 -75 -11
-14 -3 -41 -7 -60 -10 -19 -4 -80 -15 -135 -26 -55 -11 -113 -23 -129 -25
-126 -23 -455 -138 -597 -209 -103 -52 -243 -150 -313 -220 -111 -110 -224
-300 -299 -500 -26 -69 -83 -247 -92 -289 -2 -12 -14 -61 -25 -110 -27 -115
-61 -319 -75 -451 -4 -33 -9 -73 -11 -90 -26 -207 -25 -832 1 -1050 3 -22 7
-60 10 -85 5 -48 11 -91 20 -152 34 -244 104 -524 179 -716 158 -409 363 -614
783 -781 157 -62 391 -129 548 -157 17 -2 38 -7 48 -10 11 -3 29 -7 40 -9 12
-1 69 -10 127 -18 104 -16 187 -27 245 -32 51 -5 197 -17 250 -20 86 -6 517
-6 590 -1 39 3 104 8 145 11 41 3 91 8 110 10 19 3 53 7 75 9 85 11 131 17
145 21 8 2 35 7 60 10 25 4 65 11 90 17 62 13 80 17 114 24 16 2 32 7 36 9 3
2 17 6 31 9 50 10 220 66 305 101 313 129 488 284 623 553 107 213 195 500
247 812 3 14 6 36 9 50 3 14 7 48 11 75 3 28 8 58 9 67 2 9 7 48 10 85 4 37 8
79 11 93 25 154 25 920 0 1105 -2 17 -7 57 -11 90 -6 60 -19 154 -30 230 -6
35 -50 262 -60 307 -56 250 -183 561 -292 717 -145 209 -388 360 -750 467
-103 30 -250 65 -333 79 -19 3 -57 10 -85 15 -46 8 -153 22 -279 35 -119 12
-246 18 -459 19 -125 1 -229 1 -230 0z m368 -84 c385 -8 767 -69 1094 -176 42
-14 85 -29 96 -34 11 -5 51 -23 88 -39 181 -80 346 -213 436 -351 61 -94 133
-248 180 -382 37 -109 102 -349 115 -428 3 -19 7 -44 10 -55 5 -28 19 -107 21
-125 1 -8 5 -34 9 -58 4 -24 9 -58 11 -75 1 -18 6 -57 9 -87 12 -97 15 -132
23 -260 9 -155 10 -533 1 -700 -6 -116 -33 -379 -43 -425 -2 -11 -7 -42 -10
-70 -12 -89 -64 -334 -95 -448 -85 -304 -208 -547 -347 -683 -148 -146 -400
-267 -718 -348 -119 -30 -145 -35 -309 -61 -55 -9 -122 -18 -150 -21 -28 -3
-62 -7 -75 -9 -152 -27 -793 -27 -1023 0 -18 2 -60 6 -93 10 -60 6 -98 11
-145 20 -14 2 -45 7 -70 10 -39 6 -133 24 -285 55 -74 16 -283 79 -382 116
-250 93 -416 199 -559 357 -9 11 -69 101 -101 152 -103 165 -225 546 -273 852
-6 37 -13 79 -15 93 -10 61 -19 144 -31 265 -19 203 -24 573 -11 800 7 121 9
137 28 300 6 50 13 108 15 130 8 63 63 332 85 415 90 332 213 582 362 733 186
188 578 357 1032 442 72 14 200 35 241 40 27 3 58 8 69 10 11 2 56 7 100 11
44 3 91 8 105 10 14 2 99 6 190 10 91 4 166 7 167 8 1 0 25 0 55 0 29 -1 116
-3 193 -4z"/>
<path d="M1229 3986 c0 -30 0 -2544 1 -2618 l0 -38 54 0 54 0 0 1256 c0 690 2
1257 4 1260 3 2 39 -67 81 -153 84 -175 245 -506 387 -798 51 -104 121 -248
155 -320 34 -71 113 -233 174 -360 62 -126 156 -320 209 -430 53 -109 131
-269 173 -355 l76 -155 60 125 c34 69 116 238 183 375 164 334 303 620 415
850 51 105 150 307 220 450 70 143 160 328 200 410 164 338 185 378 185 354 1
-13 1 -583 1 -1266 l1 -1243 59 0 c49 0 59 3 60 18 1 26 1 2624 0 2647 -1 18
-8 20 -74 19 -39 -1 -77 -2 -84 -3 -6 0 -32 -43 -56 -93 -25 -51 -104 -214
-177 -363 -73 -148 -170 -346 -215 -440 -46 -93 -140 -287 -210 -430 -70 -143
-167 -341 -215 -440 -48 -99 -140 -287 -204 -418 -64 -131 -116 -241 -116
-246 0 -5 -6 -14 -13 -20 -11 -8 -35 34 -120 207 -126 260 -304 624 -435 892
-52 107 -138 285 -192 395 -235 482 -278 571 -369 760 l-97 200 -87 1 -87 0
-1 -30z"/>
</g>
</svg>
